<svg width="40" height="40" viewBox="0 0 40 40" fill="none" xmlns="http://www.w3.org/2000/svg">
<path d="M22.0542 19.7499L32.4229 9.38117C33.0813 8.72283 33.0813 7.73534 32.4229 7.077C31.7646 6.41867 30.7771 6.41867 30.1188 7.077L19.75 17.4458L9.38126 7.077C8.72293 6.41867 7.73543 6.41867 7.07709 7.077C6.41876 7.73534 6.41876 8.72283 7.07709 9.38117L17.4458 19.7499L7.07709 30.1187C6.74793 30.4478 6.58334 30.777 6.58334 31.2708C6.58334 32.2583 7.24168 32.9166 8.22918 32.9166C8.72293 32.9166 9.05209 32.752 9.38126 32.4228L19.75 22.0541L30.1188 32.4228C30.4479 32.752 30.7771 32.9166 31.2708 32.9166C31.7646 32.9166 32.0938 32.752 32.4229 32.4228C33.0813 31.7645 33.0813 30.777 32.4229 30.1187L22.0542 19.7499Z" fill="black"/>
</svg>
